<?xml version="1.0" encoding="UTF-8"?>
<svg xmlns="http://www.w3.org/2000/svg" xmlns:xlink="http://www.w3.org/1999/xlink" width="129px" height="228px" viewBox="0 0 65 114" version="1.1">
<g id="surface1">
<path style=" stroke:none;fill-rule:nonzero;fill:rgb(11.372549%,11.372549%,10.588235%);fill-opacity:1;" d="M 0 88.125 L 2.949219 88.125 C 5.265625 88.125 7.230469 89.273438 7.230469 91.550781 C 7.230469 93.976562 5.140625 95.074219 2.796875 95.074219 L 1.585938 95.074219 L 1.585938 99.324219 L 0.0234375 99.324219 Z M 1.5625 93.773438 L 2.796875 93.75 C 3.828125 93.75 5.59375 93.375 5.59375 91.550781 C 5.59375 89.800781 3.878906 89.398438 2.972656 89.398438 L 1.5625 89.375 Z M 1.5625 93.773438 "/>
<path style=" stroke:none;fill-rule:nonzero;fill:rgb(11.372549%,11.372549%,10.588235%);fill-opacity:1;" d="M 8.414062 93.574219 C 8.414062 92.875 8.390625 92.199219 8.3125 91.550781 L 9.726562 91.550781 L 9.800781 93.574219 L 9.902344 93.574219 C 10.179688 92.574219 11.035156 91.425781 12.195312 91.425781 C 12.621094 91.425781 12.949219 91.523438 13.203125 91.648438 L 13.203125 92.976562 C 12.976562 92.875 12.648438 92.773438 12.320312 92.773438 C 10.832031 92.773438 10 94.226562 9.902344 95.875 L 9.902344 99.324219 L 8.414062 99.324219 Z M 8.414062 93.574219 "/>
<path style=" stroke:none;fill-rule:nonzero;fill:rgb(11.372549%,11.372549%,10.588235%);fill-opacity:1;" d="M 17.585938 91.324219 C 20.28125 91.324219 21.441406 93.675781 21.441406 95.425781 C 21.441406 97.5 20.078125 99.574219 17.585938 99.574219 C 15.089844 99.574219 13.65625 97.601562 13.65625 95.425781 C 13.65625 93.625 14.863281 91.324219 17.585938 91.324219 Z M 17.558594 98.476562 C 18.769531 98.476562 19.902344 97.523438 19.902344 95.398438 C 19.902344 93.425781 18.820312 92.425781 17.558594 92.425781 C 16.550781 92.425781 15.191406 93.074219 15.191406 95.425781 C 15.191406 97.023438 15.921875 98.476562 17.558594 98.476562 Z M 17.558594 98.476562 "/>
<path style=" stroke:none;fill-rule:nonzero;fill:rgb(11.372549%,11.372549%,10.588235%);fill-opacity:1;" d="M 22.121094 91.523438 L 23.40625 91.523438 L 23.683594 89.199219 L 24.839844 89.199219 L 24.839844 91.523438 L 27.058594 91.523438 L 27.058594 92.648438 L 24.839844 92.648438 L 24.839844 97.050781 C 24.839844 97.75 25.195312 98.175781 25.925781 98.175781 C 26.351562 98.175781 26.855469 98.023438 27.058594 97.949219 L 27.058594 99.101562 C 26.78125 99.273438 26.277344 99.5 25.75 99.5 C 24.238281 99.5 23.378906 98.601562 23.378906 97.101562 L 23.378906 92.699219 L 22.121094 92.699219 Z M 22.121094 91.523438 "/>
<path style=" stroke:none;fill-rule:nonzero;fill:rgb(11.372549%,11.372549%,10.588235%);fill-opacity:1;" d="M 31.769531 91.324219 C 34.464844 91.324219 35.625 93.675781 35.625 95.425781 C 35.625 97.5 34.261719 99.574219 31.769531 99.574219 C 29.273438 99.574219 27.839844 97.601562 27.839844 95.425781 C 27.839844 93.625 29.074219 91.324219 31.769531 91.324219 Z M 31.746094 98.476562 C 32.953125 98.476562 34.085938 97.523438 34.085938 95.398438 C 34.085938 93.425781 33.003906 92.425781 31.746094 92.425781 C 30.738281 92.425781 29.375 93.074219 29.375 95.425781 C 29.375 97.023438 30.105469 98.476562 31.746094 98.476562 Z M 31.746094 98.476562 "/>
<path style=" stroke:none;fill-rule:nonzero;fill:rgb(11.372549%,11.372549%,10.588235%);fill-opacity:1;" d="M 36.328125 91.523438 L 37.613281 91.523438 L 37.890625 89.199219 L 39.050781 89.199219 L 39.050781 91.523438 L 41.265625 91.523438 L 41.265625 92.648438 L 39.050781 92.648438 L 39.050781 97.050781 C 39.050781 97.75 39.402344 98.175781 40.132812 98.175781 C 40.5625 98.175781 41.066406 98.023438 41.265625 97.949219 L 41.265625 99.101562 C 40.992188 99.273438 40.488281 99.5 39.957031 99.5 C 38.445312 99.5 37.589844 98.601562 37.589844 97.101562 L 37.589844 92.699219 L 36.328125 92.699219 Z M 36.328125 91.523438 "/>
<path style=" stroke:none;fill-rule:nonzero;fill:rgb(11.372549%,11.372549%,10.588235%);fill-opacity:1;" d="M 46.054688 100.875 C 45.574219 102.074219 44.792969 102.449219 43.835938 102.449219 C 43.507812 102.449219 43.082031 102.398438 42.804688 102.300781 L 42.804688 101.050781 C 43.03125 101.125 43.433594 101.199219 43.660156 101.199219 C 44.164062 101.199219 44.46875 101.023438 44.695312 100.574219 C 44.84375 100.25 45.097656 99.574219 45.171875 99.324219 C 45.25 98.976562 45.019531 98.773438 44.71875 98.800781 L 41.898438 91.550781 L 43.535156 91.550781 L 45.726562 97.726562 L 45.828125 97.726562 L 47.742188 91.550781 L 49.277344 91.550781 C 46.609375 99.324219 46.40625 99.898438 46.054688 100.875 Z M 46.054688 100.875 "/>
<path style=" stroke:none;fill-rule:nonzero;fill:rgb(11.372549%,11.372549%,10.588235%);fill-opacity:1;" d="M 51.722656 102.300781 L 50.261719 102.300781 L 50.261719 92.675781 C 50.261719 92.351562 50.238281 91.824219 50.238281 91.523438 L 51.621094 91.523438 C 51.648438 91.824219 51.648438 92.398438 51.648438 92.699219 L 51.75 92.699219 C 52.277344 91.898438 53.03125 91.398438 54.066406 91.398438 C 56.234375 91.398438 57.417969 93.300781 57.417969 95.476562 C 57.417969 97.726562 56.207031 99.550781 54.140625 99.550781 C 52.730469 99.550781 52.050781 98.625 51.824219 98.300781 L 51.722656 98.300781 C 51.722656 98.300781 51.75 98.851562 51.75 99.351562 Z M 53.714844 92.523438 C 52.628906 92.523438 51.796875 93.648438 51.722656 94.476562 L 51.722656 96.351562 C 51.75 97.199219 52.527344 98.425781 53.761719 98.425781 C 55.199219 98.425781 55.855469 97.074219 55.855469 95.476562 C 55.855469 93.699219 55.148438 92.523438 53.714844 92.523438 Z M 53.714844 92.523438 "/>
<path style=" stroke:none;fill-rule:nonzero;fill:rgb(11.372549%,11.372549%,10.588235%);fill-opacity:1;" d="M 59.484375 95.625 C 59.507812 97.25 60.289062 98.425781 61.773438 98.425781 C 62.734375 98.425781 63.464844 97.800781 63.640625 96.925781 L 65.074219 96.925781 C 64.898438 98.199219 63.742188 99.550781 61.675781 99.550781 C 59.484375 99.550781 57.996094 97.898438 57.996094 95.351562 C 57.996094 93.175781 59.382812 91.324219 61.574219 91.324219 C 64.445312 91.324219 65.25 93.800781 65.050781 95.625 Z M 63.613281 94.550781 C 63.640625 93.800781 63.210938 92.398438 61.625 92.398438 C 60.566406 92.398438 59.660156 93.148438 59.53125 94.574219 Z M 63.613281 94.550781 "/>
<path style=" stroke:none;fill-rule:nonzero;fill:rgb(11.372549%,11.372549%,10.588235%);fill-opacity:1;" d="M 0 102.75 L 6.296875 102.75 L 6.296875 104.074219 L 1.613281 104.074219 L 1.613281 107.773438 L 6.046875 107.773438 L 6.046875 109.074219 L 1.613281 109.074219 L 1.613281 113.949219 L 0.0234375 113.949219 Z M 0 102.75 "/>
<path style=" stroke:none;fill-rule:nonzero;fill:rgb(11.372549%,11.372549%,10.588235%);fill-opacity:1;" d="M 14.234375 106.175781 L 14.234375 112.625 C 14.234375 113.023438 14.257812 113.550781 14.335938 113.949219 L 12.824219 113.949219 C 12.796875 113.625 12.796875 113.050781 12.796875 112.601562 L 12.699219 112.601562 C 12.519531 112.925781 11.742188 114.050781 10.152344 114.050781 C 9.09375 114.050781 7.484375 113.476562 7.484375 111.125 L 7.484375 106.148438 L 8.996094 106.148438 L 8.996094 111.125 C 8.996094 112.148438 9.472656 112.851562 10.480469 112.851562 C 11.539062 112.851562 12.472656 111.925781 12.722656 110.574219 L 12.722656 106.148438 L 14.234375 106.148438 Z M 14.234375 106.175781 "/>
<path style=" stroke:none;fill-rule:nonzero;fill:rgb(11.372549%,11.372549%,10.588235%);fill-opacity:1;" d="M 15.695312 107.5 C 15.695312 107.101562 15.671875 106.625 15.621094 106.175781 L 17.132812 106.175781 L 17.132812 107.5 L 17.234375 107.5 C 17.433594 107.148438 18.289062 106 19.777344 106 C 20.710938 106 22.371094 106.5 22.371094 108.875 L 22.371094 113.949219 L 20.859375 113.949219 L 20.859375 108.851562 C 20.859375 107.773438 20.382812 107.148438 19.476562 107.148438 C 18.390625 107.148438 17.484375 108.148438 17.183594 109.425781 L 17.183594 113.949219 L 15.695312 113.949219 Z M 15.695312 107.5 "/>
<path style=" stroke:none;fill-rule:nonzero;fill:rgb(11.372549%,11.372549%,10.588235%);fill-opacity:1;" d="M 28.949219 102.75 L 30.410156 102.75 L 30.410156 112.800781 C 30.410156 113.125 30.410156 113.648438 30.433594 113.949219 L 29.097656 113.949219 C 29.074219 113.625 29.074219 113.148438 29.074219 112.800781 L 28.972656 112.800781 C 28.445312 113.601562 27.664062 114.074219 26.65625 114.074219 C 24.464844 114.074219 23.253906 112.175781 23.253906 110 C 23.253906 107.75 24.464844 105.925781 26.527344 105.925781 C 27.941406 105.925781 28.621094 106.851562 28.847656 107.175781 L 28.949219 107.175781 C 28.949219 107.175781 28.921875 106.648438 28.921875 106.125 Z M 26.984375 112.976562 C 28.066406 112.976562 28.898438 111.851562 28.949219 111.050781 L 28.949219 109.148438 C 28.921875 108.300781 28.140625 107.074219 26.90625 107.074219 C 25.472656 107.074219 24.816406 108.425781 24.816406 110.023438 C 24.839844 111.800781 25.546875 112.976562 26.984375 112.976562 Z M 26.984375 112.976562 "/>
<path style=" stroke:none;fill-rule:nonzero;fill:rgb(0%,60.392157%,80.784314%);fill-opacity:1;" d="M 43.863281 0.0234375 L 53.511719 1.226562 L 64.925781 22.976562 L 53.511719 41.25 C 53.511719 41.25 40.488281 44.625 35.5 45.824219 L 24.136719 45.824219 L 24.136719 75.273438 L 33.332031 78.5 L 33.105469 81.648438 L 16.753906 81.425781 L 0.351562 81.648438 L 0 78.5 L 9.269531 75.273438 L 9.269531 6.324219 L 0 3.148438 L 0.351562 0 Z M 24.136719 39.550781 L 33.632812 41.351562 L 48.296875 31.199219 L 52.832031 22.976562 L 48.296875 14.699219 L 33.632812 5.101562 L 24.136719 6.351562 Z M 24.136719 39.550781 "/>
</g>
</svg>
